<mxfile host="app.diagrams.net" modified="2020-04-14T11:55:39.350Z" agent="5.0 (Windows NT 10.0; Win64; x64) AppleWebKit/537.36 (KHTML, like Gecko) Chrome/80.0.3987.163 Safari/537.36" etag="QMWff4C0eEuGxCZZ67Ef" version="12.9.11" type="github">
  <diagram id="xKfU0i_M98cgjOJH_EFo" name="Page-1">
    <mxGraphModel dx="782" dy="437" grid="0" gridSize="10" guides="1" tooltips="1" connect="1" arrows="1" fold="1" page="1" pageScale="1" pageWidth="1169" pageHeight="827" math="0" shadow="0">
      <root>
        <mxCell id="0" />
        <mxCell id="1" parent="0" />
        <mxCell id="J8lNgiGQbVxlIm6GD1Gz-1" value="" style="ellipse;whiteSpace=wrap;html=1;" vertex="1" parent="1">
          <mxGeometry x="35" y="11" width="754" height="429" as="geometry" />
        </mxCell>
        <mxCell id="J8lNgiGQbVxlIm6GD1Gz-2" value="" style="ellipse;whiteSpace=wrap;html=1;aspect=fixed;fillColor=#f5f5f5;strokeColor=#666666;fontColor=#333333;" vertex="1" parent="J8lNgiGQbVxlIm6GD1Gz-1">
          <mxGeometry x="41" y="152" width="125" height="125" as="geometry" />
        </mxCell>
        <mxCell id="J8lNgiGQbVxlIm6GD1Gz-3" value="Тема1" style="text;html=1;align=center;verticalAlign=middle;resizable=0;points=[];autosize=1;" vertex="1" parent="J8lNgiGQbVxlIm6GD1Gz-1">
          <mxGeometry x="81" y="251" width="45" height="18" as="geometry" />
        </mxCell>
        <mxCell id="J8lNgiGQbVxlIm6GD1Gz-4" value="Пользователь" style="rounded=1;whiteSpace=wrap;html=1;" vertex="1" parent="J8lNgiGQbVxlIm6GD1Gz-1">
          <mxGeometry x="59.5" y="201.5" width="88" height="26" as="geometry" />
        </mxCell>
        <mxCell id="J8lNgiGQbVxlIm6GD1Gz-7" value="" style="ellipse;whiteSpace=wrap;html=1;aspect=fixed;fillColor=#f5f5f5;strokeColor=#666666;fontColor=#333333;" vertex="1" parent="J8lNgiGQbVxlIm6GD1Gz-1">
          <mxGeometry x="589" y="152" width="125" height="125" as="geometry" />
        </mxCell>
        <mxCell id="J8lNgiGQbVxlIm6GD1Gz-6" value="Тема2" style="text;html=1;align=center;verticalAlign=middle;resizable=0;points=[];autosize=1;" vertex="1" parent="J8lNgiGQbVxlIm6GD1Gz-1">
          <mxGeometry x="629" y="251" width="45" height="18" as="geometry" />
        </mxCell>
        <mxCell id="J8lNgiGQbVxlIm6GD1Gz-8" value="Файл" style="rounded=1;whiteSpace=wrap;html=1;" vertex="1" parent="J8lNgiGQbVxlIm6GD1Gz-1">
          <mxGeometry x="629" y="201.5" width="45" height="26" as="geometry" />
        </mxCell>
      </root>
    </mxGraphModel>
  </diagram>
</mxfile>
